# xmcd
#
# Track frame offsets: 
#        150
#        10616
#        22569
#        32395
#        41119
#        50788
#        62630
#        72632
#        85420
#        96708
#        109556
#        119438
#        128568
#        140345
#        150280
#        161931
#        172661
#        187600
#        197273
#        211169
#
# Disc length: 2961 seconds
#
# Revision: 2
# Processed by: cddbd v1.5.2PL0 Copyright (c) Steve Scherf et al.
# Submitted via: ExactAudioCopy v1.0b3
#
DISCID=fa0b8f14
DTITLE=Various Artist - 100 Hits - Northern Soul [Disc 5]
DYEAR=2016
DGENRE=Soul
TTITLE0=Hamilton, Roy - Crackin' Up Over You
TTITLE1=Ellis, Shirley - Soul Time
TTITLE2=Reparata and The Delrons - Panic
TTITLE3=Carr, James - That's What I Want To Know
TTITLE4=Courtney, Dean - I'll Always Need You
TTITLE5=Royal, Billy Joe - Heart's Desire
TTITLE6=Bush, Bill - I'm Waiting
TTITLE7=Hughes, Fred - Baby Boy
TTITLE8=Montclairs, The - Just Can't Get Away
TTITLE9=Hutch, Willie - Lucky To Be Loved By You
TTITLE10=Vibrations, The - Cause You're Mine
TTITLE11=Porgy and The Monarchs - That Girl
TTITLE12=Leavill, Otis - Love Uprising
TTITLE13=Lance, Major - You Don't Want Me No More
TTITLE14=Carter, Kenny - What's That On Your Finger?
TTITLE15=Glories, The - I Worship You Baby
TTITLE16=Jones, Johnny and The King Casuals - Purple Haze
TTITLE17=Masquerades, The - Do You Love Me Baby
TTITLE18=Legend, Tobi - Time Will Pass You By
TTITLE19=Radcliffe, Jimmy - Long After Tonight Is All Over
EXTD=
EXTT0=
EXTT1=
EXTT2=
EXTT3=
EXTT4=
EXTT5=
EXTT6=
EXTT7=
EXTT8=
EXTT9=
EXTT10=
EXTT11=
EXTT12=
EXTT13=
EXTT14=
EXTT15=
EXTT16=
EXTT17=
EXTT18=
EXTT19=
PLAYORDER=
